<?xml version="1.0"?><svg width="640" height="480" xmlns="http://www.w3.org/2000/svg" xmlns:xlink="http://www.w3.org/1999/xlink">
 <title>Bomb Outline Black and White</title>
 <defs>
  <linearGradient id="linearGradient31">
   <stop id="stop32" offset="0" stop-opacity="0.7608" stop-color="#004500"/>
   <stop id="stop33" offset="1" stop-opacity="0.2078" stop-color="#002700"/>
  </linearGradient>
  <linearGradient id="linearGradient34" x1="0.448821" x2="0.448821" xlink:href="#linearGradient31" y1="0.017143" y2="0.994286"/>
 </defs>
 <g>
  <title>Layer 1</title>
  <path d="m396.462708,231.318893c0,100.121414 -81.877197,181.285995 -182.877808,181.285995c-101.000397,0 -182.877609,-81.164581 -182.877609,-181.285995c0,-100.121597 81.877213,-181.286114 182.877609,-181.286114c101.00061,0 182.877808,81.164516 182.877808,181.286114z" id="path589" fill-rule="evenodd" fill="#ffffff" stroke="#000000" stroke-width="3"/>
  <path d="m59.990139,54.525909l0,0z" id="path703" stroke-width="11.85417" stroke="#000000" fill-rule="evenodd" fill="url(#linearGradient34)"/>
  <path d="m378.595001,90.48362c-10.303497,9.162598 -19.851593,25.537079 -28.847015,34.816681c-20.345093,2.190903 -68.320099,-6.982201 -69.630676,-42.202072c5.689484,-13.629951 12.46579,-26.248787 28.846985,-46.422268c35.877197,-13.78372 77.020111,30.630093 69.630707,53.807659z" id="path590" fill-rule="evenodd" fill="#ffffff" stroke="#000000" stroke-width="3"/>
  <path d="m373.506592,87.352303c5.627106,-4.455673 -13.934784,-30.431343 -21.804688,-35.809673c-6.781403,-5.278519 -30.602692,-16.646667 -37.2789,-11.936501c-7.033691,3.974472 -8.052612,15.58152 11.254089,34.317539c13.080994,14.88501 40.092407,19.645615 47.829498,13.428635z" id="path593" stroke-width="3" fill-rule="evenodd" fill="#ffffff" stroke="#000000"/>
  <path d="m334.754608,55.233082c1.115204,-4.586594 6.488983,-10.675743 8.292206,-15.00037c2.745087,-4.837723 9.464691,-8.21685 14.389282,-8.920322c7.550995,-1.396049 43.387115,16.057972 57.037201,8.080631c5.418304,-4.065781 9.968811,-22.46258 8.600891,-28.19995c-0.857483,-2.36166 7.266998,-5.48521 8.332703,-2.3449c1.537903,6.82294 1.572113,30.582318 -13.17218,39.523461c-17.146301,13.018299 -53.024719,-7.274883 -57.397125,-6.849171c-3.2995,1.276119 -4.593201,3.238979 -6.436676,6.428509c-1.645813,3.915199 -5.215698,17.593792 -6.173096,21.76704c-6.037415,0.614571 -14.790924,-9.685371 -13.473206,-14.484928z" id="path594" stroke-width="3" fill="#ffffff" stroke="#000000"/>
 </g>
</svg>